<?xml version="1.0" standalone="no"?>
<!DOCTYPE svg PUBLIC "-//W3C//DTD SVG 20010904//EN"
 "http://www.w3.org/TR/2001/REC-SVG-20010904/DTD/svg10.dtd">
<svg version="1.0" xmlns="http://www.w3.org/2000/svg"
 width="418.000000pt" height="418.000000pt" viewBox="0 0 418.000000 418.000000"
 preserveAspectRatio="xMidYMid meet">
<metadata>
Created by potrace 1.14, written by Peter Selinger 2001-2017
</metadata>
<g transform="translate(0.000000,418.000000) scale(0.100000,-0.100000)"
fill="#000000" stroke="none">
<path d="M386 4084 c-186 -48 -341 -212 -371 -393 -4 -25 -7 -748 -7 -1607 -1
-1224 2 -1573 12 -1615 42 -179 190 -326 373 -373 77 -20 3307 -19 3391 1 195
45 344 199 380 392 18 98 15 3167 -3 3231 -49 172 -185 312 -352 361 -64 19
-3351 22 -3423 3z"/>
</g>
</svg>
